# xmcd
#
# Track frame offsets:
# 150
# 23608
# 42266
# 62916
# 84416
# 106432
# 127702
# 145684
#
# Disc length: 2205 seconds
#
#
# Revision: 0
# Processed by: cddbd v1.5.2PL0 Copyright (c) Steve Scherf et al.
# Submitted via: FreeRIP 2.945 
#
DISCID=5d089b08
DTITLE=Smokey Robinson - Warm Thoughts
DYEAR=1900
DGENRE=Soul
TTITLE0=Let Me Be The Clock
TTITLE1=Heavy On Pride (Light On Love)
TTITLE2=Into Each Rain Some Life Must Fall
TTITLE3=Wine, Women And Song
TTITLE4=Melody Man
TTITLE5=What's In Your Life For Me
TTITLE6=I Want To Be Your Love
TTITLE7=Travelin' Through
EXTD=
EXTT0=
EXTT1=
EXTT2=
EXTT3=
EXTT4=
EXTT5=
EXTT6=
EXTT7=
PLAYORDER=
